:SAMPLES-PER-SECOND 30
:FULLY-SPECIFIED
:DEGREES
53
root  34.76822921 36.49705001 -14.96278808 8.146400452 -6.484357834 3.860241413
lowerback  -7.47685051 -1.531260014 -0.9145529866
upperback  -4.344669819 -1.522259951 -3.272249937
thorax  -0.361063987 -0.5934640169 -2.96897006
lowerneck  -2.996299982 -16.36529922 -12.76949978
upperneck  13.42510033 -22.75799751 12.34290028
head  7.50177002 -10.76089954 3.753000021
lclavicle  0 -4.497500157e-015 -2.743230041e-014
lhumerus  -50.37329865 29.64850044 62.12120056
lradius  0.001595117152 -6.507048965e-006 30.59772682
lwrist  4.824992743e-007 -3.790274832e-007 -28.40169907
lhand  -4.409943876e-031 -36.80120087 -10.67949963
lfingers  90 7.125020027 -90
lthumb  94.77070443 -25.51869475 100.9637711
rclavicle  0 -4.497500157e-015 -2.743230041e-014
rhumerus  -64.73840332 -25.86780167 -25.416996
rradius  -5.16745672e-007 2.214343908e-008 104.1149979
rwrist  -0.0001011603963 -0.001600692281 177.197998
rhand  -1.765817646e-031 -0.973976016 -8.001350403
rfingers  -90 -7.125020027 -90
rthumb  -86.40371753 -7.780956834 -65.09815066
rfemur  -12.77116776 16.87706757 12.76018524
rtibia  -1.535247087 -1.232523561 21.70349503
rfoot  -0.01306214277 -22.38928413 -35.71144485
rtoes  4.123615587 19.58733438 -102.1368007
lfemur  -8.130384445 -17.0451889 -20.61174393
ltibia  2.241625071 -1.646610737 15.23031807
lfoot  0.900123775 -22.48153305 38.33187103
ltoes  -8.663450655 -18.09587556 -116.1302548
54
root  34.76595841 36.49767778 -14.96421634 8.162944794 -6.525268555 3.867381334
lowerback  -7.440030575 -1.544260025 -0.9351769686
upperback  -4.35476017 -1.53828001 -3.28779006
thorax  -0.3924210072 -0.6008449793 -2.973629951
lowerneck  -2.911200047 -16.41769981 -12.77070045
upperneck  13.33689976 -22.84309959 12.42520046
head  7.480160236 -10.80189991 3.774110079
lclavicle  0 -4.497500157e-015 -2.743230041e-014
lhumerus  -50.40230179 29.66259956 62.04650116
lradius  0.001595117152 -6.507048965e-006 30.59143448
lwrist  4.824992743e-007 -3.790274832e-007 -28.47750092
lhand  -0 -36.79790115 -10.65089989
lfingers  90 7.125020027 -90
lthumb  94.76314173 -25.49078352 100.9576455
rclavicle  0 -4.497500157e-015 -2.743230041e-014
rhumerus  -64.40059662 -25.95199776 -24.21460342
rradius  -5.16745672e-007 2.214343908e-008 104.8249969
rwrist  -0.0001011603963 -0.001600692281 176.822998
rhand  -1.76590321e-031 -1.12548995 -8.000379562
rfingers  -90 -7.125020027 -90
rthumb  -86.43148973 -7.772974448 -65.2455909
rfemur  -12.79214287 16.85349846 12.75121593
rtibia  -1.539731503 -1.25214994 21.70232582
rfoot  -0.001325889141 -22.41356087 -35.65572739
rtoes  4.099619752 19.5921813 -102.0652319
lfemur  -8.135552406 -17.06821251 -20.62518883
ltibia  2.255229235 -1.66673696 15.22079372
lfoot  0.9111822248 -22.43123055 38.37702179
ltoes  -8.63785558 -18.1077881 -116.0478779
55
root  34.76300878 36.49808328 -14.96520455 8.17761898 -6.529882908 3.881232977
lowerback  -7.406949997 -1.581069946 -0.9808109403
upperback  -4.367370129 -1.584370017 -3.28986001
thorax  -0.4244999886 -0.6225770116 -2.952330112
lowerneck  -2.818190098 -16.46430016 -12.77740002
upperneck  13.26609993 -22.91659737 12.47350025
head  7.457779884 -10.84020042 3.787669897
lclavicle  0 -4.497500157e-015 -2.743230041e-014
lhumerus  -50.46319962 29.68180084 61.95640182
lradius  0.001595117152 -6.507048965e-006 30.60960007
lwrist  4.824992743e-007 -3.790274832e-007 -28.48420143
lhand  -4.408510833e-031 -36.77629852 -10.63440037
lfingers  90 7.125020027 -90
lthumb  94.74955311 -25.4753316 100.9330336
rclavicle  0 -4.497500157e-015 -2.743230041e-014
rhumerus  -64.01950073 -26.05389786 -23.0381031
rradius  -5.16745672e-007 2.214343908e-008 105.4670029
rwrist  -0.0001011603963 -0.001600692281 176.4909973
rhand  -1.76566867e-031 -0.628271997 -7.93460989
rfingers  -90 -7.125020027 -90
rthumb  -86.31026608 -7.861625935 -64.75787775
rfemur  -12.82306385 16.85676765 12.74184895
rtibia  -1.552201748 -1.250601053 21.73032951
rfoot  4.060969513e-005 -22.39712524 -35.63760757
rtoes  4.076647025 19.59679376 -101.9967304
lfemur  -8.149943352 -17.0316124 -20.63532066
ltibia  2.268708467 -1.655218959 15.2084198
lfoot  0.9091192484 -22.4499073 38.33987045
ltoes  -8.644385668 -18.10475305 -116.0688898
56
root  34.76199052 36.49841369 -14.96598852 8.187655449 -6.553236961 3.876296997
lowerback  -7.404390335 -1.585420132 -1.008090138
upperback  -4.375430107 -1.58664 -3.30505991
thorax  -0.4340119958 -0.6225410104 -2.952769995
lowerneck  -2.699599981 -16.5345993 -12.80080032
upperneck  13.16049957 -23.01860046 12.4982996
head  7.422500134 -10.89789963 3.794699907
lclavicle  0 -4.497500157e-015 -2.743230041e-014
lhumerus  -50.45709991 29.63689995 61.957901
lradius  0.001595117152 -6.507048965e-006 30.60000038
lwrist  4.824992743e-007 -3.790274832e-007 -28.44170189
lhand  -0 -36.79550171 -10.62930012
lfingers  90 7.125020027 -90
lthumb  94.75747152 -25.46967164 100.9531188
rclavicle  0 -4.497500157e-015 -2.743230041e-014
rhumerus  -63.88610077 -26.40579796 -21.69690132
rradius  -5.16745672e-007 2.214343908e-008 106.0960007
rwrist  -0.0001011603963 -0.001600692281 176.3379974
rhand  -1.76556477e-031 0.09148520231 -8.04294014
rfingers  -90 -7.125020027 -90
rthumb  -86.22021713 -7.807151607 -64.06399062
rfemur  -12.84146023 16.83669281 12.74378967
rtibia  -1.553715467 -1.259214401 21.73102188
rfoot  -0.003117867745 -22.41187286 -35.61139297
rtoes  4.073877005 19.59734809 -101.9884716
lfemur  -8.174776077 -17.05058289 -20.6177063
ltibia  2.255539656 -1.665567398 15.23218727
lfoot  0.9185947776 -22.43326378 38.37766647
ltoes  -8.63785558 -18.1077881 -116.0478779
57
root  34.76028442 36.4989093 -14.96645559 8.203046799 -6.561072826 3.877167225
lowerback  -7.401266098 -1.590327382 -1.052379847
upperback  -4.37127018 -1.589550018 -3.298180103
thorax  -0.4299739897 -0.6223535538 -2.92076993
lowerneck  -2.634190083 -16.61499977 -12.85249996
upperneck  13.0923996 -23.13290024 12.52670002
head  7.414000034 -10.95880032 3.798500061
lclavicle  0 -4.497500157e-015 -2.743230041e-014
lhumerus  -50.43420029 29.65119934 61.97779846
lradius  0.001595117152 -6.507048965e-006 30.56869888
lwrist  4.824992743e-007 -3.790274832e-007 -28.4382
lhand  -0 -36.79800034 -10.78110027
lfingers  90 7.125020027 -90
lthumb  94.79065068 -25.61859576 100.9696287
rclavicle  0 -4.497500157e-015 -2.743230041e-014
rhumerus  -63.66849899 -26.79370117 -20.39299774
rradius  -5.16745672e-007 2.214343908e-008 106.6159973
rwrist  -0.0001011603963 -0.001600692281 176.2969818
rhand  -1.765579402e-031 0.2505649924 -8.051950455
rfingers  -90 -7.125020027 -90
rthumb  -86.19357973 -7.808848994 -63.90981447
rfemur  -12.87004566 16.82447052 12.74189854
rtibia  -1.559281111 -1.238594055 21.74792099
rfoot  -0.007973261178 -22.36227226 -35.61996078
rtoes  4.095643453 19.59298161 -102.053374
lfemur  -8.201826096 -17.09124565 -20.6083889
ltibia  2.246107578 -1.685764313 15.24707127
lfoot  0.9146966338 -22.38990402 38.39455795
ltoes  -8.630516254 -18.11119585 -116.0242662
58
root  34.75655383 36.49938689 -14.96664633 8.219405174 -6.557976246 3.88790679
lowerback  -7.39053154 -1.5940938 -1.095838308
upperback  -4.370409966 -1.599820018 -3.279839993
thorax  -0.4335489869 -0.6223407388 -2.878249884
lowerneck  -2.554670095 -16.67900085 -12.92399979
upperneck  13.01799965 -23.22530174 12.56579971
head  7.402090073 -11.01039982 3.812639952
lclavicle  0 -4.497500157e-015 -2.743230041e-014
lhumerus  -50.43870163 29.71549988 61.96009827
lradius  0.001595117152 -6.507048965e-006 30.5286026
lwrist  4.824992743e-007 -3.790274832e-007 -28.53709984
lhand  -4.409120671e-031 -36.78689957 -10.82520008
lfingers  90 7.125020027 -90
lthumb  94.79470849 -25.66229792 100.9617272
rclavicle  0 -4.497500157e-015 -2.743230041e-014
rhumerus  -63.33679962 -27.02429771 -19.13990211
rradius  -5.16745672e-007 2.214343908e-008 107.0680008
rwrist  -0.0001011603963 -0.001600692281 176.3709259
rhand  -1.765562525e-031 -0.004618879873 -7.909029961
rfingers  -90 -7.125020027 -90
rthumb  -86.17970089 -7.921839121 -64.14948011
rfemur  -12.89451027 16.84167671 12.73834229
rtibia  -1.567257524 -1.245228291 21.76851273
rfoot  -0.01169751305 -22.36979103 -35.60340118
rtoes  4.118753288 19.58831892 -102.1222973
lfemur  -8.174809456 -17.15700531 -20.64014435
ltibia  2.284150839 -1.711047292 15.18945503
lfoot  0.9054775238 -22.29788971 38.41697311
ltoes  -8.650106377 -18.10209181 -116.0873002
59
root  34.7522255 36.49845874 -14.96663431 8.20219326 -6.559426785 3.900160074
lowerback  -7.396993637 -1.596669197 -1.097497821
upperback  -4.398260117 -1.599030018 -3.29479003
thorax  -0.4591920078 -0.6222165227 -2.892640114
lowerneck  -2.432579994 -16.74130058 -12.91069984
upperneck  12.9229002 -23.31669998 12.58160019
head  7.36289978 -11.06110001 3.814650297
lclavicle  0 -4.497500157e-015 -2.743230041e-014
lhumerus  -50.52870178 29.9144001 61.81790161
lradius  0.001595117152 -6.507048965e-006 30.50769997
lwrist  4.824992743e-007 -3.790274832e-007 -28.76860046
lhand  -4.410813606e-031 -36.81629944 -10.72749996
lfingers  90 7.125020027 -90
lthumb  94.7879339 -25.5653888 100.9842911
rclavicle  0 -4.497500157e-015 -2.743230041e-014
rhumerus  -62.88589859 -27.30660248 -17.84109688
rradius  -5.16745672e-007 2.214343908e-008 107.5490036
rwrist  -0.0001011603963 -0.001600692281 176.1969757
rhand  -1.765563935e-031 0.07255460322 -7.86687994
rfingers  -90 -7.125020027 -90
rthumb  -86.1461214 -7.964387198 -64.07171273
rfemur  -12.87712288 16.84848785 12.734622
rtibia  -1.570818305 -1.261184692 21.7760601
rfoot  -0.01353659481 -22.40761948 -35.6098671
rtoes  4.135575285 19.58490756 -102.1724776
lfemur  -8.088475227 -17.1020565 -20.68425941
ltibia  2.349352121 -1.679242373 15.09356976
lfoot  0.9294313788 -22.32494736 38.43998718
ltoes  -8.655438447 -18.09960938 -116.1044622
